{"title":"FuckedHard18 - Macy (2012) 720p","uid":7749773,"size":1163919205,"categoryP":"porn","categoryS":"hd___movies","magnet":"?xt=urn:btih:cc534495c63961ae0a599ba3c97869c0d2438dd5&amp;dn=FuckedHard18+-+Macy+%282012%29+720p&amp;tr=udp%3A%2F%2Ftracker.openbittorrent.com%3A80&amp;tr=udp%3A%2F%2Fopen.demonii.com%3A1337&amp;tr=udp%3A%2F%2Ftracker.coppersurfer.tk%3A6969&amp;tr=udp%3A%2F%2Fexodus.desync.com%3A6969","seeders":1,"leechers":2,"uploader":"R0thschild","files":1,"time":1350867552,"description":"Gallery: \n &lt;a href=&quot;\nhttp://imagedomino.com/?g=676847&quot; rel=&quot;nofollow&quot; target=&quot;_NEW&quot;&gt;\nhttp://imagedomino.com/?g=676847&lt;/a&gt;\n\n\nVideo\nID : 2\nFormat : VC-1\nFormat profile : MP@HL\nCodec ID : WMV3\nCodec ID/Info : Windows Media Video 9\nCodec ID/Hint : WMV3\nDescription of the codec : Windows Media Video 9 - Professional\nDuration : 49mn 19s\nBit rate mode : Constant\nBit rate : 3 050 Kbps\nWidth : 1 280 pixels\nHeight : 720 pixels\nDisplay aspect ratio : 16:9\nFrame rate : 30.000 fps\nBit depth : 8 bits\nScan type : Progressive\nCompression mode : Lossy\nBits/(Pixel*Frame) : 0.110\nStream size : 1.05 GiB (97%)\nLanguage : English (US)\n\nAudio\nID : 1\nFormat : WMA\nFormat version : Version 2\nCodec ID : 161\nCodec ID/Info : Windows Media Audio\nDescription of the codec : Windows Media Audio 9.2 - 96 kbps, 44 kHz, stereo (A/V) 1-pass CBR\nDuration : 49mn 19s\nBit rate mode : Constant\nBit rate : 96.0 Kbps\nChannel(s) : 2 channels\nSampling rate : 44.1 KHz\nBit depth : 16 bits\nStream size : 33.9 MiB (3%)\nLanguage : English (US)","torrent":{"xt":"urn:btih:cc534495c63961ae0a599ba3c97869c0d2438dd5","amp;dn":"FuckedHard18+-+Macy+%282012%29+720p","amp;tr":["udp%3A%2F%2Ftracker.openbittorrent.com%3A80","udp%3A%2F%2Fopen.demonii.com%3A1337","udp%3A%2F%2Ftracker.coppersurfer.tk%3A6969","udp%3A%2F%2Fexodus.desync.com%3A6969"],"infoHash":"cc534495c63961ae0a599ba3c97869c0d2438dd5","infoHashBuffer":{"type":"Buffer","data":[204,83,68,149,198,57,97,174,10,89,155,163,201,120,105,192,210,67,141,213]},"announce":[],"urlList":[]}}